#N canvas 111 133 998 440 10;
#X obj 87 20 loadbang;
#X msg 86 44 440;
#X floatatom 89 72 5 0 0 0 - - -;
#X msg 98 96 keynote \$1;
#X floatatom 207 236 5 0 0 0 - - -;
#X floatatom 222 260 5 0 0 0 - - -;
#X floatatom 192 207 5 0 0 0 - - -;
#X floatatom 261 233 5 0 0 0 - - -;
#X floatatom 279 259 5 0 0 0 - - -;
#X floatatom 249 206 5 0 0 0 - - -;
#X floatatom 302 208 5 0 0 0 - - -;
#X floatatom 320 232 5 0 0 0 - - -;
#X floatatom 339 255 5 0 0 0 - - -;
#X floatatom 384 236 5 0 0 0 - - -;
#X floatatom 400 260 5 0 0 0 - - -;
#X floatatom 363 208 5 0 0 0 - - -;
#X floatatom 431 235 5 0 0 0 - - -;
#X floatatom 449 261 5 0 0 0 - - -;
#X floatatom 420 208 5 0 0 0 - - -;
#X floatatom 467 207 5 0 0 0 - - -;
#X floatatom 485 231 5 0 0 0 - - -;
#X floatatom 504 254 5 0 0 0 - - -;
#X floatatom 541 231 5 0 0 0 - - -;
#X floatatom 555 252 5 0 0 0 - - -;
#X floatatom 526 205 5 0 0 0 - - -;
#X floatatom 597 232 5 0 0 0 - - -;
#X floatatom 613 256 5 0 0 0 - - -;
#X floatatom 576 204 5 0 0 0 - - -;
#X text 302 20 creates the frequencies of each harmonic triad in perfect
pitch refering to the keynote;
#X text 218 308 I;
#X text 308 309 ii;
#X text 353 308 iii;
#X text 406 310 IV;
#X text 467 309 V;
#X text 516 307 vi;
#X text 565 304 viidim;
#X text 623 304 I;
#X text 38 304 Roman numeral analysis;
#X text 136 70 Change Keynote here;
#X text -9 178 Freqency values of Chords ---->;
#X obj 193 129 ph_harmonic_tetra, f 71;
#X floatatom 233 284 5 0 0 0 - - -;
#X floatatom 295 285 5 0 0 0 - - -;
#X floatatom 351 284 5 0 0 0 - - -;
#X floatatom 413 285 5 0 0 0 - - -;
#X floatatom 461 286 5 0 0 0 - - -;
#X floatatom 519 280 5 0 0 0 - - -;
#X floatatom 566 280 5 0 0 0 - - -;
#X floatatom 630 280 5 0 0 0 - - -;
#X connect 0 0 1 0;
#X connect 1 0 2 0;
#X connect 2 0 3 0;
#X connect 3 0 40 0;
#X connect 40 0 6 0;
#X connect 40 1 4 0;
#X connect 40 2 5 0;
#X connect 40 3 41 0;
#X connect 40 4 9 0;
#X connect 40 5 7 0;
#X connect 40 6 8 0;
#X connect 40 7 42 0;
#X connect 40 8 10 0;
#X connect 40 9 11 0;
#X connect 40 10 12 0;
#X connect 40 11 43 0;
#X connect 40 12 15 0;
#X connect 40 13 13 0;
#X connect 40 14 14 0;
#X connect 40 15 44 0;
#X connect 40 16 18 0;
#X connect 40 17 16 0;
#X connect 40 18 17 0;
#X connect 40 19 45 0;
#X connect 40 20 19 0;
#X connect 40 21 20 0;
#X connect 40 22 21 0;
#X connect 40 23 46 0;
#X connect 40 24 24 0;
#X connect 40 25 22 0;
#X connect 40 26 23 0;
#X connect 40 27 47 0;
#X connect 40 28 27 0;
#X connect 40 29 25 0;
#X connect 40 30 26 0;
#X connect 40 31 48 0;
